<svg width="120" height="50" viewBox="0 0 120 50" fill="none" xmlns="http://www.w3.org/2000/svg">
<path fill-rule="evenodd" clip-rule="evenodd" d="M12.3041 43.1078L9.11958 35.7254L5.95877 43.1078H12.3041ZM13.3415 45.5687H4.89706L3.23265 49.4773H0L7.59969 32.5889H10.6878L18.311 49.4773H15.0303L13.3415 45.5687Z" fill="white"/>
<path fill-rule="evenodd" clip-rule="evenodd" d="M27.6957 46.8233C28.9344 46.8233 30.024 46.5862 30.9652 46.1115C31.9062 45.6374 32.6297 44.9618 33.1362 44.0849C33.643 43.2082 33.8965 42.1912 33.8965 41.0328C33.8965 39.8749 33.643 38.8579 33.1362 37.981C32.6297 37.1046 31.9062 36.429 30.9652 35.9543C30.024 35.4802 28.9344 35.2429 27.6957 35.2429H23.5948V46.8233H27.6957ZM20.458 32.5889H27.8408C29.6422 32.5889 31.2423 32.9389 32.6417 33.6383C34.0411 34.338 35.1268 35.3273 35.8986 36.6059C36.6707 37.8846 37.0571 39.3603 37.0571 41.0328C37.0571 42.7059 36.6707 44.1813 35.8986 45.4599C35.1268 46.7386 34.0411 47.7279 32.6417 48.4276C31.2423 49.1273 29.6422 49.477 27.8408 49.477H20.458V32.5889Z" fill="white"/>
<path fill-rule="evenodd" clip-rule="evenodd" d="M47.6234 46.8233C48.8621 46.8233 49.9518 46.5862 50.893 46.1115C51.8339 45.6374 52.5574 44.9618 53.0642 44.0849C53.5707 43.2082 53.8243 42.1912 53.8243 41.0328C53.8243 39.8749 53.5707 38.8579 53.0642 37.981C52.5574 37.1046 51.8339 36.429 50.893 35.9543C49.9518 35.4802 48.8621 35.2429 47.6234 35.2429H43.5225V46.8233H47.6234ZM40.3857 32.5889H47.7685C49.5699 32.5889 51.17 32.9389 52.5694 33.6383C53.9688 34.338 55.0546 35.3273 55.8264 36.6059C56.5985 37.8846 56.9848 39.3603 56.9848 41.0328C56.9848 42.7059 56.5985 44.1813 55.8264 45.4599C55.0546 46.7386 53.9688 47.7279 52.5694 48.4276C51.17 49.1273 49.5699 49.477 47.7685 49.477H40.3857V32.5889Z" fill="white"/>
<path fill-rule="evenodd" clip-rule="evenodd" d="M60.3135 49.477H63.4502V32.5889H60.3135V49.477Z" fill="white"/>
<path fill-rule="evenodd" clip-rule="evenodd" d="M71.4357 35.2429H65.8384V32.5889H80.1692V35.2429H74.5719V49.477H71.4357V35.2429Z" fill="white"/>
<path fill-rule="evenodd" clip-rule="evenodd" d="M82.5327 49.477H85.6695V32.5889H82.5327V49.477Z" fill="white"/>
<path fill-rule="evenodd" clip-rule="evenodd" d="M105.549 32.5889L98.1906 49.477H95.1024L87.7202 32.5889H91.1214L96.7428 45.617L102.413 32.5889H105.549Z" fill="white"/>
<path fill-rule="evenodd" clip-rule="evenodd" d="M120 46.8473V49.477H107.333V32.5889H119.662V35.2188H110.471V39.6096H118.625V42.1909H110.471V46.8473H120Z" fill="white"/>
<path fill-rule="evenodd" clip-rule="evenodd" d="M6.69189 0.447266H13.295L23.8014 13.9453V0.447266H30.806V25.9845H24.604L13.6962 11.9757V25.9845H6.69189V0.447266Z" fill="white"/>
<path fill-rule="evenodd" clip-rule="evenodd" d="M74.8297 12.7056C77.2375 12.7056 78.6237 11.5376 78.6237 9.67726V9.6043C78.6237 7.59801 77.1645 6.576 74.7934 6.576H70.1602V12.7056H74.8297ZM63.083 0.447266H75.1582C79.0615 0.447266 81.7613 1.46928 83.4763 3.21979C84.9719 4.67901 85.7373 6.6498 85.7373 9.16654V9.2395C85.7373 13.1425 83.6583 15.733 80.4844 17.083L86.5765 25.9845H78.4051L73.2612 18.2501H73.1877H70.1602V25.9845H63.083V0.447266Z" fill="white"/>
<path fill-rule="evenodd" clip-rule="evenodd" d="M89.1934 0.447266H96.672L102.764 10.3336L108.857 0.447266H116.335V25.9845H109.295V11.3193L102.764 21.3147H102.619L96.1249 11.392V25.9845H89.1934V0.447266Z" fill="white"/>
<path fill-rule="evenodd" clip-rule="evenodd" d="M57.0945 4.20635L55.8206 4.03499C55.1704 3.94777 54.5076 3.90332 53.8512 3.90332C51.831 3.90332 49.835 4.32515 47.9897 5.12353L53.5633 8.34165C54.1414 8.67514 54.4975 9.2921 54.4975 9.95937V16.4708C54.4975 17.1381 54.1414 17.755 53.5633 18.0885L47.9897 21.3066C49.8353 22.105 51.8315 22.5268 53.8518 22.5268C54.4836 22.5268 55.1215 22.486 55.7479 22.405L57.0204 22.2403C59.2828 19.8779 60.6319 16.7056 60.6319 13.2149V13.1423C60.6319 9.68961 59.3155 6.55117 57.0945 4.20635" fill="white"/>
<path fill-rule="evenodd" clip-rule="evenodd" d="M55.9424 3.12503C53.5864 1.17576 50.4868 0 46.9805 0C39.1385 0 33.2568 5.91768 33.2568 13.2152V13.2879C33.2568 20.549 39.0658 26.4306 46.9078 26.4306C50.3971 26.4306 53.4981 25.2591 55.8655 23.316C52.5068 23.7504 49.0391 23.0934 46.0102 21.3446L40.3712 18.0888C39.7931 17.7553 39.437 17.1383 39.437 16.471V9.95961C39.437 9.29234 39.7931 8.67538 40.3712 8.34188L46.0102 5.08603C49.0623 3.32406 52.5597 2.67049 55.9424 3.12503" fill="white"/>
</svg>
