<svg width="19" height="13" viewBox="0 0 19 13" fill="none" xmlns="http://www.w3.org/2000/svg">
<path d="M7.49192 13C7.30477 13.0004 7.11938 12.9636 6.94641 12.8918C6.77343 12.82 6.61626 12.7145 6.48392 12.5815L0.43597 6.50086C0.299708 6.36876 0.190984 6.2107 0.116143 6.03591C0.0413012 5.86112 0.00184039 5.67309 6.28534e-05 5.48281C-0.00171468 5.29253 0.0342266 5.10379 0.10579 4.92762C0.177353 4.75145 0.283105 4.59136 0.416874 4.45671C0.550644 4.32206 0.709754 4.21554 0.884918 4.14335C1.06008 4.07117 1.24779 4.03478 1.4371 4.03629C1.62641 4.03781 1.81352 4.07721 1.98752 4.15219C2.16151 4.22717 2.31891 4.33624 2.45053 4.47302L7.49049 9.53905L16.5653 0.420191C16.8326 0.151282 17.1953 0.000134467 17.5735 8.96768e-08C17.9517 -0.000134287 18.3144 0.150755 18.582 0.419474C18.8495 0.688193 18.9999 1.05273 19 1.43289C19.0001 1.81305 18.85 2.17769 18.5827 2.4466L8.49991 12.5815C8.36757 12.7145 8.21041 12.82 8.03743 12.8918C7.86445 12.9636 7.67907 13.0004 7.49192 13Z" fill="white"/>
</svg>
