<svg width="140" height="51" viewBox="0 0 140 51" fill="none" xmlns="http://www.w3.org/2000/svg">
<path d="M12.17 50.61H4.81997C3.2333 50.61 2.1833 50.3533 1.66997 49.84C1.2033 49.3267 0.969971 48.2767 0.969971 46.69V4.06C0.969971 2.42667 1.22664 1.35333 1.73997 0.840002C2.2533 0.280001 3.27997 0 4.81997 0H12.17V50.61ZM29.6 19.53V23.73C29.6 25.41 29.4366 26.4833 29.11 26.95C28.7833 27.37 27.85 27.58 26.31 27.58H14.97V19.53H29.6ZM32.4 0V6.02C32.4 7.60667 32.1433 8.65667 31.63 9.17C31.1166 9.63667 30.0433 9.87 28.41 9.87H14.97V0H32.4Z" fill="black"/>
<path d="M75.5878 0H86.0878C89.4945 0 92.0611 0.583336 93.7878 1.75C95.5611 2.91667 96.4478 4.94667 96.4478 7.84V46.62C96.4478 48.2533 96.1911 49.3267 95.6778 49.84C95.2111 50.3533 94.1845 50.61 92.5978 50.61H85.2478V8.68C85.2478 7.93334 85.1311 7.42 84.8978 7.14C84.7111 6.81334 84.1978 6.65 83.3578 6.65H75.5878V0ZM50.1778 50.61H42.8278C41.2411 50.61 40.1911 50.3533 39.6778 49.84C39.2111 49.3267 38.9778 48.2533 38.9778 46.62V2.8C38.9778 1.96 39.2111 1.28334 39.6778 0.770004C40.1444 0.256669 40.7511 0 41.4978 0H50.1778V50.61ZM53.0478 0H70.9678C71.7144 0 72.3211 0.256669 72.7878 0.770004C73.2544 1.28334 73.4878 1.96 73.4878 2.8V45.5H66.2078C64.8078 45.5 63.8045 45.1267 63.1978 44.38C62.5911 43.5867 62.2878 42.3267 62.2878 40.6V8.68C62.2878 7.93334 62.1711 7.42 61.9378 7.14C61.7511 6.81334 61.2378 6.65 60.3978 6.65H53.0478V0Z" fill="black"/>
<path d="M125.142 6.65H118.632C117.885 6.65 117.512 6.83667 117.512 7.21V50.61H110.162C108.575 50.61 107.525 50.3533 107.012 49.84C106.545 49.3267 106.312 48.2533 106.312 46.62V3.99C106.312 2.35667 106.545 1.28334 107.012 0.770004C107.525 0.256669 108.575 0 110.162 0H125.142V6.65ZM127.942 0H135.292C136.878 0 137.905 0.256669 138.372 0.770004C138.885 1.28334 139.142 2.35667 139.142 3.99V46.55C139.142 48.1833 138.885 49.28 138.372 49.84C137.858 50.3533 136.832 50.61 135.292 50.61H127.942V27.16H120.312V20.51H127.942V0Z" fill="black"/>
</svg>
